<svg xmlns="http://www.w3.org/2000/svg" xmlns:xlink="http://www.w3.org/1999/xlink" preserveAspectRatio="xMidYMid" width="32" height="32" viewBox="0 0 32 32">
  <defs>
    <style>
      .cls-1 {
        fill: #B4B4B4;
        fill-rule: evenodd;
      }
    </style>
  </defs>
  <g id="artboard-1">
    <path d="M16.013,0.000 C15.451,0.000 14.889,0.434 14.463,1.302 L10.479,9.545 L1.780,10.984 C-0.142,11.303 -0.618,12.710 0.717,14.110 L6.965,20.634 L5.581,29.813 C5.370,31.192 5.926,32.000 6.901,32.000 C7.272,32.000 7.703,31.884 8.175,31.637 L16.014,27.488 L23.852,31.637 C24.325,31.883 24.756,32.000 25.126,32.000 C26.101,32.000 26.655,31.192 26.448,29.813 L25.069,20.634 L31.308,14.116 C32.644,12.711 32.167,11.303 30.245,10.984 L21.610,9.545 L17.562,1.302 C17.137,0.434 16.575,0.000 16.013,0.000 L16.013,0.000 Z" class="cls-1"/>
  </g>
</svg>
