<svg xmlns="http://www.w3.org/2000/svg" xmlns:xlink="http://www.w3.org/1999/xlink" preserveAspectRatio="xMidYMid" width="32" height="32" viewBox="0 0 32 32">
  <defs>
    <style>
      .cls-1 {
        fill: #FFF;
        fill-rule: evenodd;
      }
    </style>
  </defs>
  <g id="artboard-1">
    <path d="M16.061,7.275 L18.035,11.304 L18.941,13.152 L20.971,13.491 L25.630,14.269 L22.187,17.872 L20.833,19.290 L21.123,21.227 L21.845,26.035 L17.922,23.955 L16.045,22.959 L14.168,23.955 L10.249,26.033 L10.973,21.229 L11.265,19.290 L9.909,17.872 L6.469,14.272 L11.177,13.491 L13.226,13.152 L14.128,11.282 L16.061,7.275 M16.044,0.000 C15.484,0.000 14.923,0.434 14.497,1.302 L10.521,9.545 L1.839,10.984 C-0.079,11.303 -0.555,12.709 0.778,14.110 L7.014,20.634 L5.632,29.813 C5.422,31.192 5.977,32.000 6.950,32.000 C7.320,32.000 7.750,31.884 8.222,31.637 L16.045,27.488 L23.868,31.637 C24.340,31.883 24.770,32.000 25.140,32.000 C26.113,32.000 26.666,31.192 26.459,29.813 L25.082,20.634 L31.310,14.116 C32.643,12.711 32.167,11.303 30.249,10.984 L21.631,9.545 L17.591,1.302 C17.166,0.434 16.605,0.000 16.044,0.000 L16.044,0.000 Z" class="cls-1"/>
  </g>
</svg>
