<svg xmlns="http://www.w3.org/2000/svg" xmlns:xlink="http://www.w3.org/1999/xlink" preserveAspectRatio="xMidYMid" width="32" height="32" viewBox="0 0 32 32">
  <defs>
    <style>
      .cls-1 {
        fill: #B4B4B4;
        fill-rule: evenodd;
      }
    </style>
  </defs>
  <g id="artboard-1">
    <path d="M29.268,28.878 L28.865,29.283 C28.072,30.077 26.788,30.077 25.995,29.283 L18.954,22.218 C17.228,23.339 15.175,23.996 12.965,23.996 C6.875,23.996 1.939,19.055 1.939,12.960 C1.939,6.864 6.875,1.923 12.965,1.923 C19.054,1.923 23.990,6.864 23.990,12.960 C23.990,15.164 23.338,17.212 22.226,18.935 L29.268,26.001 C30.061,26.796 30.061,28.084 29.268,28.878 ZM12.964,6.012 C9.079,6.012 5.929,9.144 5.929,13.007 C5.929,16.870 9.079,20.002 12.964,20.002 C16.850,20.002 20.000,16.870 20.000,13.007 C20.000,9.144 16.850,6.012 12.964,6.012 Z" class="cls-1"/>
  </g>
</svg>
