<svg xmlns="http://www.w3.org/2000/svg" xmlns:xlink="http://www.w3.org/1999/xlink" preserveAspectRatio="xMidYMid" width="32" height="32" viewBox="0 0 32 32">
  <defs>
    <style>
      .cls-1 {
        fill: #B4B4B4;
        fill-rule: evenodd;
      }
    </style>
  </defs>
  <g id="artboard-1">
    <path d="M30.000,22.000 C31.105,22.000 32.000,22.895 32.000,24.000 C32.000,25.105 31.105,26.000 30.000,26.000 L2.000,26.000 C0.895,26.000 0.000,25.105 0.000,24.000 C0.000,22.895 0.895,22.000 2.000,22.000 L-1.000,22.000 C1.761,22.000 4.000,19.761 4.000,17.000 C4.000,14.239 4.000,13.761 4.000,11.000 C4.000,8.238 6.239,6.000 9.000,6.000 C11.761,6.000 20.239,6.000 23.000,6.000 C25.762,6.000 28.000,8.238 28.000,11.000 C28.000,13.761 28.000,14.239 28.000,17.000 C28.000,19.761 30.239,22.000 33.000,22.000 L30.000,22.000 Z" class="cls-1"/>
  </g>
</svg>
